<svg width="56" height="56" viewBox="0 0 56 56" fill="none" xmlns="http://www.w3.org/2000/svg">
<path d="M50.4001 29.68C50.4001 43.8185 42.1386 52.08 28.0001 52.08C13.8616 52.08 5.6001 43.8185 5.6001 29.68C5.6001 15.5415 13.8616 7.28 28.0001 7.28C42.1386 7.28 50.4001 15.5415 50.4001 29.68Z" fill="#FFC61A"/>
<rect x="35.28" y="22.7756" width="5.6" height="6.72" rx="2.8" fill="#323233"/>
<path fill-rule="evenodd" clip-rule="evenodd" d="M33.6001 25.0156C33.6001 21.9228 36.1073 19.4156 39.2001 19.4156C42.2929 19.4156 44.8001 21.9228 44.8001 25.0156V27.2556C44.8001 30.3484 42.2929 32.8556 39.2001 32.8556C36.1073 32.8556 33.6001 30.3484 33.6001 27.2556V25.0156ZM41.4401 26.6956V25.5756C41.4401 23.7199 39.9358 22.2156 38.0801 22.2156C36.2244 22.2156 34.7201 23.7199 34.7201 25.5756V26.6956C34.7201 28.5513 36.2244 30.0556 38.0801 30.0556C39.9358 30.0556 41.4401 28.5513 41.4401 26.6956Z" fill="white"/>
<rect width="5.6" height="6.72" rx="2.8" transform="matrix(-1 0 0 1 20.1602 22.7756)" fill="#323233"/>
<path fill-rule="evenodd" clip-rule="evenodd" d="M21.8401 25.0156C21.8401 21.9228 19.3329 19.4156 16.2401 19.4156C13.1473 19.4156 10.6401 21.9228 10.6401 25.0156V27.2556C10.6401 30.3484 13.1473 32.8556 16.2401 32.8556C19.3329 32.8556 21.8401 30.3484 21.8401 27.2556V25.0156ZM14.0001 26.6956V25.5756C14.0001 23.7199 15.5044 22.2156 17.3601 22.2156C19.2158 22.2156 20.7201 23.7199 20.7201 25.5756V26.6956C20.7201 28.5513 19.2158 30.0556 17.3601 30.0556C15.5044 30.0556 14.0001 28.5513 14.0001 26.6956Z" fill="white"/>
<path d="M10.6401 37.3356L28.0001 43.4956L45.3601 37.3356" stroke="black" stroke-width="2" stroke-linecap="round" stroke-linejoin="round"/>
<path d="M30.24 35.6556C30.24 34.4185 29.2371 33.4156 28 33.4156C26.7629 33.4156 25.76 34.4185 25.76 35.6556" stroke="black" stroke-width="2" stroke-linecap="round" stroke-linejoin="round"/>
<path d="M22.8197 4.51883L24.3898 5.83122L22.1498 6.40206L22.8197 4.51883Z" fill="#FFC61A"/>
<path d="M18.4495 3.92L21.5898 6.54477L17.1098 7.68645L18.4495 3.92Z" fill="#FFC61A"/>
<path d="M16.5498 7.82916L14.9797 6.51677L14.3098 8.4L16.5498 7.82916Z" fill="#FFC61A"/>
</svg>
