<svg width="100" height="100" viewBox="0 0 100 100" fill="none" xmlns="http://www.w3.org/2000/svg">
<path d="M90 53C90 78.2473 75.2473 93 50 93C24.7527 93 10 78.2473 10 53C10 27.7527 24.7527 13 50 13C75.2473 13 90 27.7527 90 53Z" fill="#323233"/>
<rect x="63" y="40.6707" width="10" height="12" rx="5" fill="#323233"/>
<path fill-rule="evenodd" clip-rule="evenodd" d="M60 44.6707C60 39.1478 64.4772 34.6707 70 34.6707C75.5228 34.6707 80 39.1478 80 44.6707V48.6707C80 54.1935 75.5228 58.6707 70 58.6707C64.4772 58.6707 60 54.1935 60 48.6707V44.6707ZM74 47.6707V45.6707C74 42.357 71.3137 39.6707 68 39.6707C64.6863 39.6707 62 42.357 62 45.6707V47.6707C62 50.9844 64.6863 53.6707 68 53.6707C71.3137 53.6707 74 50.9844 74 47.6707Z" fill="white"/>
<rect width="10" height="12" rx="5" transform="matrix(-1 0 0 1 36 40.6707)" fill="#323233"/>
<path fill-rule="evenodd" clip-rule="evenodd" d="M39 44.6707C39 39.1478 34.5228 34.6707 29 34.6707C23.4772 34.6707 19 39.1478 19 44.6707V48.6707C19 54.1935 23.4772 58.6707 29 58.6707C34.5228 58.6707 39 54.1935 39 48.6707V44.6707ZM25 47.6707V45.6707C25 42.357 27.6863 39.6707 31 39.6707C34.3137 39.6707 37 42.357 37 45.6707V47.6707C37 50.9844 34.3137 53.6707 31 53.6707C27.6863 53.6707 25 50.9844 25 47.6707Z" fill="white"/>
<path d="M19 66.6707L50 77.6707L81 66.6707" stroke="white" stroke-width="2" stroke-linecap="round" stroke-linejoin="round"/>
<path d="M54 63.6707C54 61.4616 52.2091 59.6707 50 59.6707C47.7909 59.6707 46 61.4616 46 63.6707" stroke="white" stroke-width="2" stroke-linecap="round" stroke-linejoin="round"/>
<path d="M40.7489 8.06935L43.5527 10.4129L39.5527 11.4322L40.7489 8.06935Z" fill="#323233"/>
<path d="M32.945 7L38.5527 11.6871L30.5527 13.7258L32.945 7Z" fill="#323233"/>
<path d="M29.5527 13.9806L26.7489 11.6371L25.5527 15L29.5527 13.9806Z" fill="#323233"/>
</svg>
