<svg fill="rgba(231, 231, 231, 1)" width="200" height="200" xmlns="http://www.w3.org/2000/svg" xml:space="preserve" version="1.1">
 <g>
  <title>Layer 1</title>
  <g stroke="rgba(150,150,0,1)" id="svg_1">
   <path stroke="rgba(150,150,150,1)" id="svg_2" d="m154.4506,86.6059c-5.2557,0 -10.26857,1.01588 -14.84952,2.84569l-16.74097,-28.21153c8.30187,-1.28393 15.12334,-4.47539 17.9779,-12.41763c0.91821,-2.55378 -0.47681,-5.34378 -3.11636,-6.23237c-2.63829,-0.88737 -5.52193,0.46143 -6.44015,3.01582c-2.0761,5.77523 -9.48885,6.70727 -26.41953,6.70727c-2.79385,0 -5.05903,2.1921 -5.05903,4.89582c0,2.70371 2.26518,4.89582 5.05903,4.89582c2.27403,0 4.55819,-0.00122 6.81641,-0.04406l10.92941,18.41806l-22.33689,34.50939c-7.60436,-12.75483 -18.9309,-31.58291 -26.61051,-44.49563c8.68952,-1.41856 15.12777,-3.04765 15.12777,-8.50587l0,-0.2503c0,-5.62529 -6.8474,-7.184 -15.93658,-8.63622c-6.27257,-1.00242 -12.93025,-1.64193 -14.83055,-1.64193l-0.25864,0c-5.79006,0 -10.71124,4.61064 -10.71124,10.27815l0,0.2503c0,5.66813 4.92117,10.27877 10.71124,10.27877l0.25864,0c0.84043,0 2.63323,-0.12546 4.91295,-0.35127c1.32989,2.24045 2.91906,4.91479 4.81936,8.1087l-6.48125,10.01317c-4.94457,-2.19577 -10.43678,-3.42952 -16.22368,-3.42952c-21.53187,0 -39.0494,16.95238 -39.0494,37.78958s17.51753,37.6678 39.0494,37.6678c19.77006,0 36.14362,-13.91269 38.69337,-32.88397l16.30905,0c0.00316,0 0.00632,0 0.00949,0s0.00696,0 0.01012,0l0.04743,0c1.80734,0 3.47745,-0.81087 4.38112,-2.32612c0.06766,-0.11383 0.12078,-0.17197 0.17833,-0.28947l23.64086,-36.4928l2.50991,4.24467c-9.3668,6.90922 -15.42689,17.82016 -15.42689,30.07194c0,20.83721 17.51753,37.79387 39.0494,37.79387s39.0494,-16.95054 39.0494,-37.78775c0,-20.83782 -17.51753,-37.78836 -39.0494,-37.78836zm-109.40157,65.66575c-15.95302,0 -28.93134,-12.49902 -28.93134,-27.93675c0,-15.43834 12.97831,-27.96735 28.93134,-27.96735c3.81451,0 7.45512,0.74049 10.79281,2.04462l-5.4138,8.37062c-1.70553,-0.48775 -3.51034,-0.74967 -5.37965,-0.74967c-10.47789,0 -18.97137,8.2213 -18.97137,18.36115c0,10.13985 8.49348,18.23814 18.97137,18.23814c8.67624,0 15.98528,-5.49678 18.2454,-13.45248l10.21039,0c-2.45553,13.46288 -14.27659,23.09173 -28.45516,23.09173zm18.32255,-32.88397c-0.80312,-2.44791 -2.31893,-5.39335 -4.35772,-7.53772l5.40621,-8.41285c4.70869,4.11616 8.01098,9.8308 9.13219,15.95057l-10.18067,0zm20.40561,0c-1.27867,-9.79163 -6.42813,-18.29873 -13.92625,-24.2808l3.6229,-5.65895c4.61953,7.75497 10.4665,17.70021 17.88305,29.93975l-7.57969,0zm70.67341,33.00576c-15.95302,0 -28.93134,-12.5596 -28.93134,-27.99795c0,-8.62092 4.04976,-16.34162 10.402,-21.48162l5.07041,8.54442c-3.40663,3.31875 -5.51245,7.89022 -5.51245,12.93781c0,10.13985 8.49348,18.35931 18.97137,18.35931c10.47789,0 18.97137,-8.21946 18.97137,-18.35931s-8.49348,-18.35931 -18.97137,-18.35931c-1.6132,0 -3.17834,0.19583 -4.67455,0.56302l-5.07927,-8.55972c3.0487,-1.05994 6.33201,-1.64193 9.75381,-1.64193c15.95302,0 28.93134,12.5596 28.93134,27.99795s-12.97831,27.99734 -28.93134,27.99734z"/>
  </g>
  <g id="svg_3"/>
  <g id="svg_4"/>
  <g id="svg_5"/>
  <g id="svg_6"/>
  <g id="svg_7"/>
  <g id="svg_8"/>
  <g id="svg_9"/>
  <g id="svg_10"/>
  <g id="svg_11"/>
  <g id="svg_12"/>
  <g id="svg_13"/>
  <g id="svg_14"/>
  <g id="svg_15"/>
  <g id="svg_16"/>
  <g id="svg_17"/>
 </g>
</svg>