<svg xmlns="http://www.w3.org/2000/svg" width="20" height="20" viewBox="0 0 20 20" fill="none">
<path d="M2.9211 3.71604L7.49962 16.9429C7.54273 17.0674 7.62412 17.1752 7.73215 17.2507C7.84017 17.3262 7.96931 17.3656 8.10109 17.3633C8.23288 17.361 8.36056 17.3171 8.4659 17.2379C8.57124 17.1587 8.64883 17.0482 8.6876 16.9222L10.5279 10.9413C10.5579 10.8439 10.6112 10.7553 10.6833 10.6832C10.7554 10.6111 10.844 10.5577 10.9414 10.5278L16.9224 8.68748C17.0483 8.64872 17.1588 8.57112 17.238 8.46578C17.3173 8.36044 17.3612 8.23276 17.3635 8.10097C17.3657 7.96919 17.3263 7.84005 17.2508 7.73203C17.1753 7.624 17.0675 7.54261 16.943 7.4995L3.71616 2.92098C3.60533 2.88261 3.48593 2.87621 3.37162 2.9025C3.25732 2.92879 3.15271 2.98672 3.06978 3.06965C2.98684 3.15259 2.92891 3.25719 2.90262 3.3715C2.87633 3.48581 2.88274 3.6052 2.9211 3.71604V3.71604Z" stroke="rgb(127, 151, 123)" stroke-width="0.9375" stroke-linecap="round" stroke-linejoin="round"/>
</svg>